<svg xmlns="http://www.w3.org/2000/svg" width="1024" height="1024" viewBox="0 0 1024 1024">
<g>
<path d="M 327.34 653.69 C325.95,656.06 324.29,657.99 323.65,657.98 C323.02,657.97 317.55,655.02 311.50,651.42 C305.45,647.83 294.31,641.48 286.75,637.32 L 272.99 629.76 L 273.25 509.22 L 273.50 388.67 L 291.50 378.74 C301.40,373.28 316.92,364.74 326.00,359.76 C335.08,354.79 348.80,347.24 356.50,342.98 C364.20,338.73 380.62,329.72 393.00,322.95 C405.38,316.19 423.38,306.29 433.00,300.96 C455.68,288.39 508.81,260.02 511.82,258.88 C514.51,257.86 525.66,263.17 555.66,279.79 C565.47,285.22 579.12,292.75 586.00,296.51 C592.88,300.28 612.45,311.21 629.50,320.80 C678.00,348.09 722.28,372.63 736.59,380.13 L 749.68 387.00 L 750.34 414.75 C750.70,430.01 751.00,485.05 751.00,537.06 L 751.00 631.61 L 731.25 642.49 C720.39,648.46 709.42,654.50 706.87,655.90 C702.81,658.14 702.04,658.27 700.53,657.03 C698.38,655.24 694.42,647.34 664.49,585.04 C651.13,557.24 631.83,517.29 621.60,496.25 C575.24,400.93 564.95,379.74 552.27,353.50 C544.83,338.10 538.33,324.98 537.83,324.35 C536.39,322.54 523.95,318.26 517.96,317.53 C510.94,316.66 498.20,319.23 491.63,322.83 L 486.77 325.50 L 466.32 365.50 C455.08,387.50 441.84,414.19 436.91,424.81 C431.98,435.43 422.72,454.56 416.33,467.31 C409.95,480.07 402.36,495.67 399.48,502.00 C396.59,508.33 387.61,527.45 379.51,544.50 C371.42,561.55 363.09,579.10 361.02,583.50 C339.94,628.22 329.45,650.08 327.34,653.69 ZM 394.66 683.25 C391.61,689.71 388.75,695.00 388.31,694.99 C385.52,694.97 352.00,674.73 352.00,673.07 C352.00,671.80 362.34,649.60 383.04,606.43 C405.80,558.95 439.75,487.64 442.51,481.50 C443.75,478.75 450.73,463.90 458.02,448.50 C477.02,408.34 480.56,400.82 486.22,388.50 C500.28,357.92 501.77,355.10 504.16,354.50 C505.45,354.17 510.30,354.04 514.94,354.20 L 523.38 354.50 L 531.81 372.50 C536.44,382.40 548.34,407.60 558.24,428.50 C568.14,449.40 587.94,491.25 602.24,521.50 C631.97,584.41 632.47,585.46 653.00,628.50 C672.71,669.82 673.92,672.53 673.15,673.73 C671.29,676.64 638.59,695.44 636.67,694.70 C636.00,694.45 631.33,685.29 626.29,674.37 C621.25,663.44 606.95,632.90 594.52,606.50 C582.09,580.10 570.03,554.34 567.71,549.25 L 563.50 540.01 L 512.18 540.00 L 460.85 540.00 L 452.05 558.25 C447.20,568.29 438.41,587.30 432.51,600.50 C420.94,626.38 403.58,664.34 394.66,683.25 ZM 529.83 755.36 C520.66,760.66 513.01,765.00 512.83,764.99 C512.15,764.98 483.62,748.90 461.50,736.07 C434.08,720.17 418.85,710.71 417.67,708.84 C416.63,707.19 428.81,681.20 467.40,602.75 L 482.03 573.00 L 544.61 573.00 L 557.74 600.25 C584.01,654.76 601.30,691.64 606.03,703.25 C608.33,708.92 608.34,709.03 606.44,710.44 C604.60,711.80 586.08,722.85 572.00,730.99 C568.42,733.05 561.22,737.21 556.00,740.23 C550.78,743.24 539.00,750.05 529.83,755.36 ZM 317.66 563.04 L 318.33 572.39 L 332.94 542.95 C340.98,526.75 354.97,498.20 364.03,479.50 C373.08,460.80 390.28,425.75 402.25,401.60 C414.21,377.46 424.00,357.10 424.00,356.35 C424.00,355.61 423.66,355.01 423.25,355.01 C422.32,355.03 382.51,376.44 345.19,397.00 L 317.05 412.50 L 317.03 483.10 C317.01,521.92 317.30,557.90 317.66,563.04 ZM 691.83 542.43 C704.70,568.68 706.58,571.99 707.13,569.43 C707.48,567.82 707.82,536.74 707.88,500.36 C708.00,435.08 707.26,414.81 704.70,412.35 C704.04,411.72 687.75,402.45 668.50,391.74 C635.37,373.31 614.45,361.57 607.31,357.40 C605.56,356.37 603.84,355.83 603.48,356.19 C602.49,357.17 609.24,372.33 625.00,404.50 C632.82,420.45 647.75,451.27 658.19,473.00 C668.63,494.73 683.77,525.97 691.83,542.43 ZM 498.00 707.89 C505.42,711.78 512.13,714.98 512.89,714.98 C513.65,714.99 520.18,711.77 527.39,707.83 C534.60,703.88 543.30,699.13 546.72,697.27 C550.15,695.41 553.20,693.49 553.51,692.99 C553.82,692.49 549.03,681.15 542.88,667.79 C536.73,654.43 528.90,637.43 525.49,630.02 C519.34,616.67 519.24,616.54 515.39,615.73 C515.05,615.66 514.73,615.59 514.43,615.53 C512.66,615.14 511.36,614.86 510.16,615.12 C506.51,615.91 503.96,621.79 492.87,645.50 C475.94,681.69 473.00,688.51 473.00,691.53 C473.00,694.24 477.11,696.93 498.00,707.89 ZM 484.19 491.25 L 483.16 495.00 L 509.46 495.00 C535.31,495.00 542.00,494.57 542.00,492.91 C542.00,491.23 513.91,435.00 513.06,435.00 C509.97,435.00 487.70,478.39 484.19,491.25 Z" fill="rgb(2,17,32)"/>
<path d="M 0.00 512.00 L 0.00 0.00 L 512.00 0.00 L 1024.00 0.00 L 1024.00 512.00 L 1024.00 1024.00 L 512.00 1024.00 L 0.00 1024.00 L 0.00 512.00 ZM 529.83 755.36 C539.00,750.05 550.78,743.24 556.00,740.23 C561.22,737.21 568.42,733.05 572.00,730.99 C586.08,722.85 604.60,711.80 606.44,710.44 C608.34,709.03 608.33,708.92 606.03,703.25 C601.30,691.64 584.01,654.76 557.74,600.25 L 544.61 573.00 L 513.32 573.00 L 482.03 573.00 L 467.40 602.75 C428.81,681.20 416.63,707.19 417.67,708.84 C418.85,710.71 434.08,720.17 461.50,736.07 C483.62,748.90 512.15,764.98 512.83,764.99 C513.01,765.00 520.66,760.66 529.83,755.36 ZM 394.66 683.25 C403.58,664.34 420.94,626.38 432.51,600.50 C438.41,587.30 447.20,568.29 452.05,558.25 L 460.85 540.00 L 512.18 540.00 L 563.50 540.01 L 567.71 549.25 C570.03,554.34 582.09,580.10 594.52,606.50 C606.95,632.90 621.25,663.44 626.29,674.37 C631.33,685.29 636.00,694.45 636.67,694.70 C638.59,695.44 671.29,676.64 673.15,673.73 C673.92,672.53 672.71,669.82 653.00,628.50 C632.47,585.46 631.97,584.41 602.24,521.50 C587.94,491.25 568.14,449.40 558.24,428.50 C548.34,407.60 536.44,382.40 531.81,372.50 L 523.38 354.50 L 514.94 354.20 C510.30,354.04 505.45,354.17 504.16,354.50 C501.77,355.10 500.28,357.92 486.22,388.50 C480.56,400.82 477.02,408.34 458.02,448.50 C450.73,463.90 443.75,478.75 442.51,481.50 C439.75,487.64 405.80,558.95 383.04,606.43 C362.34,649.60 352.00,671.80 352.00,673.07 C352.00,674.73 385.52,694.97 388.31,694.99 C388.75,695.00 391.61,689.71 394.66,683.25 ZM 327.34 653.69 C329.45,650.08 339.94,628.22 361.02,583.50 C363.09,579.10 371.42,561.55 379.51,544.50 C387.61,527.45 396.59,508.33 399.48,502.00 C402.36,495.67 409.95,480.07 416.33,467.31 C422.72,454.56 431.98,435.43 436.91,424.81 C441.84,414.19 455.08,387.50 466.32,365.50 L 486.77 325.50 L 491.63 322.83 C498.20,319.23 510.94,316.66 517.96,317.53 C523.95,318.26 536.39,322.54 537.83,324.35 C538.33,324.98 544.83,338.10 552.27,353.50 C564.95,379.74 575.24,400.93 621.60,496.25 C631.83,517.29 651.13,557.24 664.49,585.04 C694.42,647.34 698.38,655.24 700.53,657.03 C702.04,658.27 702.81,658.14 706.87,655.90 C709.42,654.50 720.39,648.46 731.25,642.49 L 751.00 631.61 L 751.00 537.06 C751.00,485.05 750.70,430.01 750.34,414.75 L 749.68 387.00 L 736.59 380.13 C722.28,372.63 678.00,348.09 629.50,320.80 C612.45,311.21 592.88,300.28 586.00,296.51 C579.12,292.75 565.47,285.22 555.66,279.79 C525.66,263.17 514.51,257.86 511.82,258.88 C508.81,260.02 455.68,288.39 433.00,300.96 C423.38,306.29 405.38,316.19 393.00,322.95 C380.62,329.72 364.20,338.73 356.50,342.98 C348.80,347.24 335.08,354.79 326.00,359.76 C316.92,364.74 301.40,373.28 291.50,378.74 L 273.50 388.67 L 273.25 509.22 L 272.99 629.76 L 286.75 637.32 C294.31,641.48 305.45,647.83 311.50,651.42 C317.55,655.02 323.02,657.97 323.65,657.98 C324.29,657.99 325.95,656.06 327.34,653.69 ZM 498.00 707.89 C477.11,696.93 473.00,694.24 473.00,691.53 C473.00,688.51 475.94,681.69 492.87,645.50 C508.22,612.70 507.21,614.03 515.39,615.73 C519.24,616.54 519.34,616.67 525.49,630.02 C528.90,637.43 536.73,654.43 542.88,667.79 C549.03,681.15 553.82,692.49 553.51,692.99 C553.20,693.49 550.15,695.41 546.72,697.27 C543.30,699.13 534.60,703.88 527.39,707.83 C520.18,711.77 513.65,714.99 512.89,714.98 C512.13,714.98 505.42,711.78 498.00,707.89 ZM 484.19 491.25 C487.70,478.39 509.97,435.00 513.06,435.00 C513.91,435.00 542.00,491.23 542.00,492.91 C542.00,494.57 535.31,495.00 509.46,495.00 L 483.16 495.00 L 484.19 491.25 ZM 317.66 563.04 C317.30,557.90 317.01,521.92 317.03,483.10 L 317.05 412.50 L 345.19 397.00 C382.51,376.44 422.32,355.03 423.25,355.01 C423.66,355.01 424.00,355.61 424.00,356.35 C424.00,357.10 414.21,377.46 402.25,401.60 C390.28,425.75 373.08,460.80 364.03,479.50 C354.97,498.20 340.98,526.75 332.94,542.95 L 318.33 572.39 L 317.66 563.04 ZM 691.83 542.43 C683.77,525.97 668.63,494.73 658.19,473.00 C647.75,451.27 632.82,420.45 625.00,404.50 C609.24,372.33 602.49,357.17 603.48,356.19 C603.84,355.83 605.56,356.37 607.31,357.40 C614.45,361.57 635.37,373.31 668.50,391.74 C687.75,402.45 704.04,411.72 704.70,412.35 C707.26,414.81 708.00,435.08 707.88,500.36 C707.82,536.74 707.48,567.82 707.13,569.43 C706.58,571.99 704.70,568.68 691.83,542.43 Z" fill="rgb(254,254,254)"/>
</g>
</svg>